<svg id="Capa_1" enable-background="new 0 0 512 512" height="512" viewBox="0 0 512 512" width="512" xmlns="http://www.w3.org/2000/svg"><g><path d="m484.615 428.258h-457.229c-10.982 0-19.885-8.903-19.885-19.885v-291.442c0-10.982 8.903-19.885 19.885-19.885h457.229c10.982 0 19.885 8.903 19.885 19.885v291.442c0 10.982-8.903 19.885-19.885 19.885z" fill="#fdfcfc"/><path d="m225.306 70.362c0-33.618-27.648-60.778-61.446-59.983-31.182.734-57.601 26.981-58.526 58.157-.742 24.985 13.798 46.66 34.967 56.379 1.184.544 2.196 1.402 2.938 2.473l18.545 26.762c1.705 2.46 5.341 2.46 7.046 0l18.546-26.763c.744-1.074 1.761-1.932 2.948-2.478 20.645-9.483 34.982-30.339 34.982-54.547z" fill="#ffe07d"/><path d="m163.86 10.38c-4.593.108-9.078.783-13.399 1.933 25.796 6.717 44.845 30.151 44.845 58.05 0 24.207-14.337 45.064-34.982 54.548-1.187.545-2.204 1.403-2.948 2.478l-7.069 10.201 11.477 16.562c1.705 2.46 5.341 2.46 7.046 0l18.546-26.763c.744-1.074 1.761-1.932 2.948-2.478 20.645-9.484 34.982-30.341 34.982-54.548 0-33.618-27.648-60.779-61.446-59.983z" fill="#ffd064"/><path d="m504.5 370.127v-253.196c0-10.982-8.903-19.885-19.885-19.885h-181.769v273.082h201.654z" fill="#e1ebf0"/><path d="m484.615 97.045h-30c10.982 0 19.885 8.903 19.885 19.885v291.442c0 10.982-8.903 19.886-19.885 19.886h30c10.982 0 19.885-8.903 19.885-19.886v-291.441c0-10.983-8.903-19.886-19.885-19.886z" fill="#b4d2d7"/><path d="m7.5 371.046v37.327c0 10.982 8.903 19.886 19.885 19.886h457.229c10.982 0 19.885-8.903 19.885-19.886v-37.327z" fill="#b4d2d7"/><path d="m474.5 371.046v37.327c0 10.982-8.903 19.886-19.885 19.886h30c10.982 0 19.885-8.903 19.885-19.886v-37.327z" fill="#9bb9c3"/><path d="m319.948 501.638h-127.753l10-72.627h107.753z" fill="#738c96"/><path d="m309.948 429.011h-30l10 72.627h30z" fill="#607882"/><circle cx="165.306" cy="70.763" fill="#fdfcfc" r="25.241"/><path d="m114.264 190.455h102.085c8.284 0 15 6.716 15 15v97.46c0 8.284-6.716 15-15 15h-102.085c-8.284 0-15-6.716-15-15v-97.46c0-8.285 6.716-15 15-15z" fill="#fddb98"/><path d="m216.349 190.454h-30c8.284 0 15 6.716 15 15v97.46c0 8.284-6.716 15-15 15h30c8.284 0 15-6.716 15-15v-97.46c0-8.284-6.716-15-15-15z" fill="#fdd17a"/><path d="m148.309 190.454h33.994v126.127h-33.994z" fill="#e59a69"/><path d="m447.34 329.439h-82.833c-7.445 0-13.48-6.035-13.48-13.48v-12.404c0-7.445 6.035-13.48 13.48-13.48h82.833c7.445 0 13.48 6.035 13.48 13.48v12.404c0 7.445-6.036 13.48-13.48 13.48z" fill="#ffebab"/><path d="m447.34 290.076h-30c7.445 0 13.48 6.035 13.48 13.48v12.404c0 7.445-6.035 13.48-13.48 13.48h30c7.445 0 13.48-6.035 13.48-13.48v-12.404c0-7.445-6.036-13.48-13.48-13.48z" fill="#ffe07d"/><g><path d="m165.306 103.504c18.053 0 32.741-14.688 32.741-32.741s-14.688-32.741-32.741-32.741-32.741 14.688-32.741 32.741 14.688 32.741 32.741 32.741zm0-50.482c9.782 0 17.741 7.958 17.741 17.741s-7.959 17.741-17.741 17.741-17.741-7.958-17.741-17.741 7.959-17.741 17.741-17.741z"/><path d="m216.349 182.955h-102.085c-12.407 0-22.5 10.093-22.5 22.5v97.46c0 12.407 10.093 22.5 22.5 22.5h102.085c12.407 0 22.5-10.093 22.5-22.5v-97.46c0-12.407-10.094-22.5-22.5-22.5zm-41.546 15v112.46h-18.994v-112.46zm-68.039 104.96v-97.46c0-4.136 3.364-7.5 7.5-7.5h26.545v112.46h-26.545c-4.136 0-7.5-3.365-7.5-7.5zm117.085 0c0 4.136-3.364 7.5-7.5 7.5h-26.545v-112.46h26.545c4.136 0 7.5 3.364 7.5 7.5z"/><circle cx="358.527" cy="162.155" r="7.5"/><path d="m389.146 169.655h60.893c4.143 0 7.5-3.358 7.5-7.5s-3.357-7.5-7.5-7.5h-60.893c-4.143 0-7.5 3.358-7.5 7.5s3.357 7.5 7.5 7.5z"/><circle cx="358.527" cy="198.98" r="7.5"/><path d="m389.146 206.48h60.893c4.143 0 7.5-3.358 7.5-7.5s-3.357-7.5-7.5-7.5h-60.893c-4.143 0-7.5 3.358-7.5 7.5s3.357 7.5 7.5 7.5z"/><circle cx="358.527" cy="235.804" r="7.5"/><path d="m389.146 243.304h60.893c4.143 0 7.5-3.358 7.5-7.5s-3.357-7.5-7.5-7.5h-60.893c-4.143 0-7.5 3.358-7.5 7.5s3.357 7.5 7.5 7.5z"/><path d="m484.615 89.545h-91.264c-4.143 0-7.5 3.358-7.5 7.5s3.357 7.5 7.5 7.5h91.264c6.829 0 12.386 5.556 12.386 12.386v246.862h-186.655v-259.248h53.005c4.143 0 7.5-3.358 7.5-7.5s-3.357-7.5-7.5-7.5h-133.347c1.831-6.141 2.802-12.592 2.802-19.183 0-18.331-7.223-35.48-20.338-48.29-13.112-12.807-30.454-19.616-48.784-19.191-35.262.83-64.8 30.183-65.846 65.433-.217 7.317.753 14.465 2.754 21.23h-73.206c-15.101.001-27.386 12.286-27.386 27.387v291.442c0 15.1 12.285 27.385 27.386 27.385h166.309l-8.038 58.38h-24.21c-4.142 0-7.5 3.358-7.5 7.5s3.358 7.5 7.5 7.5h189.249c4.143 0 7.5-3.358 7.5-7.5s-3.357-7.5-7.5-7.5h-24.21l-8.039-58.38h58.485c4.143 0 7.5-3.358 7.5-7.5s-3.357-7.5-7.5-7.5h-349.546c-6.83 0-12.386-5.556-12.386-12.385v-29.58h482v29.58c0 6.829-5.557 12.385-12.386 12.385h-77.683c-4.142 0-7.5 3.358-7.5 7.5s3.358 7.5 7.5 7.5h77.683c15.1 0 27.386-12.285 27.386-27.385v-291.442c0-15.101-12.285-27.386-27.385-27.386zm-173.27 404.593h-110.547l8.038-58.38h94.47zm-198.514-425.378c.391-13.15 5.968-25.721 15.706-35.397s22.345-15.175 35.499-15.485c.427-.01.852-.015 1.277-.015 13.8 0 26.782 5.277 36.674 14.94 10.201 9.964 15.819 23.303 15.819 37.56 0 20.454-12.016 39.19-30.613 47.733-2.401 1.103-4.469 2.839-5.981 5.021l-15.904 22.951-15.904-22.951c-1.513-2.183-3.578-3.917-5.973-5.016-19.217-8.824-31.228-28.191-30.6-49.341zm-97.831 48.171c0-6.83 5.556-12.386 12.386-12.386h79.709c6.841 11.658 17.166 21.241 30.007 27.155l18.518 26.723c2.202 3.176 5.823 5.073 9.688 5.072 3.865 0 7.486-1.896 9.687-5.073l18.519-26.724c12.75-5.873 23.087-15.477 29.953-27.153h71.879v259.248h-280.346z"/><path d="m343.527 303.556v12.403c0 11.568 9.411 20.98 20.98 20.98h82.833c11.568 0 20.98-9.412 20.98-20.98v-12.403c0-11.568-9.412-20.98-20.98-20.98h-82.833c-11.569 0-20.98 9.411-20.98 20.98zm15 0c0-3.297 2.683-5.98 5.98-5.98h82.833c3.298 0 5.98 2.683 5.98 5.98v12.403c0 3.297-2.683 5.98-5.98 5.98h-82.833c-3.297 0-5.98-2.683-5.98-5.98z"/></g></g></svg>